<svg width="48" height="40" viewBox="0 0 48 40" fill="none" xmlns="http://www.w3.org/2000/svg">
    <path
        d="M42 0.5H6C4.4087 0.5 2.88257 1.21459 1.75735 2.48657C0.632136 3.75856 0 5.48375 0 7.28261V32.7174C0 34.5163 0.632136 36.2414 1.75735 37.5134C2.88257 38.7854 4.4087 39.5 6 39.5H42C43.5913 39.5 45.1174 38.7854 46.2426 37.5134C47.3679 36.2414 48 34.5163 48 32.7174V7.28261C48 5.48375 47.3679 3.75856 46.2426 2.48657C45.1174 1.21459 43.5913 0.5 42 0.5ZM45 32.7174C45 33.6168 44.6839 34.4794 44.1213 35.1154C43.5587 35.7514 42.7957 36.1087 42 36.1087H6C5.20435 36.1087 4.44129 35.7514 3.87868 35.1154C3.31607 34.4794 3 33.6168 3 32.7174V7.28261C3 6.38318 3.31607 5.52058 3.87868 4.88459C4.44129 4.2486 5.20435 3.8913 6 3.8913H42C42.7957 3.8913 43.5587 4.2486 44.1213 4.88459C44.6839 5.52058 45 6.38318 45 7.28261V32.7174Z"
        fill="black" />
    <path
        d="M41.655 9.60568C41.5301 9.43274 41.3763 9.28939 41.2023 9.18381C41.0283 9.07824 40.8376 9.01254 40.6411 8.99049C40.4446 8.96843 40.2461 8.99044 40.0572 9.05527C39.8682 9.12011 39.6925 9.22648 39.54 9.36829L24 23.7474L8.44496 9.36829C8.29534 9.21013 8.11863 9.08827 7.92576 9.01025C7.73289 8.93224 7.52792 8.89972 7.3235 8.91468C7.11908 8.92964 6.91954 8.99176 6.73718 9.09724C6.55481 9.20272 6.39349 9.3493 6.26316 9.52796C6.13283 9.70661 6.03627 9.91355 5.9794 10.136C5.92252 10.3585 5.90654 10.5918 5.93247 10.8215C5.95841 11.0512 6.02568 11.2724 6.13016 11.4716C6.23464 11.6708 6.3741 11.8437 6.53995 11.9796L23.04 27.2405C23.3098 27.4932 23.6495 27.6312 24 27.6305C24.3453 27.6273 24.6791 27.4895 24.945 27.2405L41.445 11.9796C41.7495 11.6949 41.9424 11.286 41.9818 10.8415C42.0211 10.397 41.9036 9.95286 41.655 9.60568Z"
        fill="black" />
    <path
        d="M35.55 23.0352C35.269 22.7194 34.8888 22.5421 34.4925 22.5421C34.0962 22.5421 33.7161 22.7194 33.435 23.0352C33.2945 23.1928 33.1828 23.3804 33.1067 23.587C33.0305 23.7936 32.9913 24.0153 32.9913 24.2391C32.9913 24.463 33.0305 24.6846 33.1067 24.8912C33.1828 25.0978 33.2945 25.2854 33.435 25.443L39.435 32.2256C39.5749 32.3826 39.7407 32.5069 39.9231 32.5914C40.1054 32.676 40.3007 32.7191 40.4978 32.7183C40.6949 32.7175 40.89 32.6729 41.0718 32.5869C41.2536 32.5009 41.4187 32.3753 41.5575 32.2172C41.6964 32.0591 41.8064 31.8716 41.8811 31.6654C41.9559 31.4593 41.9941 31.2385 41.9934 31.0157C41.9927 30.7929 41.9532 30.5725 41.8771 30.3669C41.801 30.1614 41.6899 29.9748 41.55 29.8178L35.55 23.0352Z"
        fill="black" />
    <path
        d="M12.495 23.0352L6.49499 29.8178C6.21253 30.1348 6.05305 30.5658 6.05165 31.0157C6.05024 31.4657 6.20702 31.8979 6.48748 32.2172C6.76795 32.5365 7.14914 32.7167 7.54718 32.7183C7.94523 32.7199 8.32754 32.5427 8.60999 32.2256L14.61 25.443C14.7506 25.2854 14.8622 25.0978 14.9383 24.8912C15.0145 24.6846 15.0537 24.463 15.0537 24.2391C15.0537 24.0153 15.0145 23.7936 14.9383 23.587C14.8622 23.3804 14.7506 23.1928 14.61 23.0352C14.329 22.7194 13.9488 22.5421 13.5525 22.5421C13.1562 22.5421 12.776 22.7194 12.495 23.0352Z"
        fill="black" />
</svg>