<svg width="49" height="48" viewBox="0 0 49 48" fill="none" xmlns="http://www.w3.org/2000/svg">
    <path
        d="M48.8409 21.3667C44.6577 11.7781 36.8486 4.1547 27.0555 0.0995446C26.6611 -0.0449275 26.2246 -0.0317021 25.84 0.13635C25.4555 0.304402 25.1535 0.613863 24.999 0.998167C24.9149 1.19047 24.8706 1.3973 24.8688 1.60658C24.8669 1.81586 24.9076 2.02339 24.9883 2.21709C25.0691 2.41079 25.1883 2.58679 25.3391 2.73479C25.4899 2.8828 25.6692 2.99986 25.8666 3.07915C34.8938 6.82152 42.0919 13.8509 45.949 22.6909C46.1215 23.0658 46.4364 23.3597 46.8266 23.5099C47.2168 23.6602 47.6514 23.6548 48.0376 23.495C48.2354 23.41 48.4136 23.2868 48.5618 23.1328C48.71 22.9787 48.825 22.7969 48.9 22.5983C48.975 22.3996 49.0084 22.1882 48.9982 21.9766C48.9881 21.765 48.9346 21.5575 48.8409 21.3667Z"
        fill="black" />
    <path
        d="M25.0311 11.5924C30.503 13.854 34.8682 18.1092 37.2092 23.4635C37.3335 23.7276 37.5298 23.9528 37.7765 24.1142C38.0232 24.2756 38.3106 24.3668 38.6069 24.3779C38.8238 24.3763 39.0377 24.3278 39.2334 24.236C39.6029 24.0584 39.8888 23.7484 40.0323 23.37C40.1758 22.9916 40.1659 22.5737 40.0046 22.2023C37.3512 16.1233 32.3982 11.2914 26.1879 8.72309C25.8055 8.58988 25.3858 8.60361 25.0133 8.76153C24.6408 8.91945 24.3429 9.20988 24.1797 9.57442C24.0286 9.95359 24.0329 10.3754 24.1916 10.7515C24.3503 11.1276 24.6512 11.429 25.0311 11.5924Z"
        fill="black" />
    <path
        d="M40.5027 30.3212C40.1542 29.9218 39.7218 29.6011 39.2351 29.3812C38.7484 29.1613 38.2189 29.0475 37.6831 29.0475C37.1472 29.0475 36.6178 29.1613 36.1311 29.3812C35.6443 29.6011 35.2119 29.9218 34.8635 30.3212C33.5461 31.5982 32.2287 32.8909 30.9274 34.1995C30.8695 34.2837 30.7949 34.3556 30.7081 34.4109C30.6212 34.4663 30.524 34.5039 30.422 34.5215C30.3201 34.5392 30.2155 34.5365 30.1147 34.5137C30.0138 34.4909 29.9187 34.4483 29.8349 34.3886C28.9834 33.9314 28.0676 33.5688 27.2483 33.0644C23.4883 30.6731 20.1555 27.6904 17.3838 24.2359C15.9366 22.5618 14.741 20.6931 13.8332 18.6866C13.7345 18.5202 13.7012 18.3242 13.7397 18.1354C13.7782 17.9466 13.8857 17.7782 14.042 17.6618C15.3595 16.4006 16.6447 15.1237 17.9461 13.8309C18.3708 13.4848 18.7126 13.051 18.9471 12.5606C19.1817 12.0701 19.3033 11.535 19.3033 10.9932C19.3033 10.4514 19.1817 9.91632 18.9471 9.42587C18.7126 8.93542 18.3708 8.50167 17.9461 8.15549C16.9178 7.13076 15.8896 6.13757 14.8453 5.11283L11.6322 1.95981C11.2708 1.57995 10.8363 1.27426 10.3537 1.06047C9.87103 0.846675 9.34993 0.729025 8.82061 0.714355C8.28789 0.731585 7.76387 0.85188 7.27864 1.06831C6.79341 1.28474 6.3565 1.59305 5.99299 1.97557C4.65952 3.25254 3.39031 4.57681 2.0247 5.83802C0.822419 6.9507 0.103224 8.47515 0.0164816 10.0946C-0.0979664 12.7506 0.384728 15.3987 1.43029 17.851C3.43416 22.949 6.32022 27.6691 9.96128 31.8032C14.7497 37.4501 20.7156 42.0248 27.4571 45.2193C30.4479 46.7698 33.7262 47.7135 37.0967 47.9939H37.7232C38.7522 48.0366 39.7779 47.8536 40.7256 47.4582C41.6734 47.0627 42.5193 46.4648 43.2017 45.708C44.3263 44.4625 45.5956 43.3274 46.8005 42.1451C47.2172 41.7973 47.5518 41.3648 47.7814 40.8775C48.0109 40.3903 48.1298 39.8599 48.1298 39.3231C48.1298 38.7863 48.0109 38.256 47.7814 37.7687C47.5518 37.2815 47.2172 36.849 46.8005 36.5012C44.7227 34.4412 42.6234 32.3812 40.5027 30.3212ZM44.5513 39.9537L43.3463 41.1203C42.5109 41.9086 41.6594 42.6968 40.824 43.627C40.4478 44.0561 39.9741 44.3924 39.441 44.6088C38.908 44.8251 38.3306 44.9154 37.7554 44.8724H37.3055C34.3502 44.6221 31.4763 43.7911 28.8548 42.4288C22.5304 39.4106 16.929 35.1123 12.4194 29.8168C8.99135 25.9668 6.27305 21.5603 4.3864 16.7948C3.50542 14.7751 3.08857 12.5898 3.16542 10.3941C3.20219 9.55054 3.57072 8.7538 4.19361 8.17127C5.02904 7.38301 5.8002 6.59474 6.6517 5.79072L8.25829 4.21421C8.31092 4.10759 8.39311 4.01769 8.4954 3.95477C8.59769 3.89186 8.71597 3.8585 8.83669 3.8585C8.95742 3.8585 9.0757 3.89186 9.17799 3.95477C9.28028 4.01769 9.36242 4.10759 9.41504 4.21421C10.1219 4.89211 10.8128 5.58577 11.5036 6.27944L12.564 7.31994L14.1706 8.89645L15.6968 10.3941C16.2913 10.9774 16.2591 11.0878 15.6968 11.6238L15.1506 12.1598C14.0581 13.2634 12.9496 14.3354 11.7928 15.439C11.1887 16.002 10.7789 16.7361 10.6205 17.5388C10.4621 18.3415 10.563 19.1726 10.9092 19.9163C11.9232 22.2015 13.2767 24.3266 14.9257 26.2223C17.9282 29.9287 21.5324 33.1245 25.5935 35.6814C26.22 36.0597 26.8627 36.375 27.425 36.6431L28.2925 37.0687C28.9061 37.4242 29.6044 37.6146 30.3169 37.6205C30.8716 37.6177 31.4197 37.5013 31.926 37.2787C32.4323 37.0561 32.8856 36.7322 33.2569 36.3278C34.5261 35.0508 35.8114 33.8053 37.161 32.4968C37.2983 32.3212 37.49 32.194 37.7072 32.1342C37.9318 32.1874 38.1306 32.3156 38.2695 32.4968C40.4116 34.5988 42.5538 36.6641 44.6959 38.6925C45.0654 39.2443 45.1136 39.3862 44.5513 39.9537Z"
        fill="black" />
</svg>